<?xml version="1.0" standalone="yes"?>
<svg xmlns="http://www.w3.org/2000/svg" width="450" height="297">
<path style="fill:#ffffff; stroke:none;" d="M0 0L0 297L450 297L450 0L0 0z"/>
<path style="fill:#e6d5f1; stroke:none;" d="M213 60L213 93C214.328 89.8344 214 86.4186 214 83C214 76.0493 215.701 66.4359 213 60z"/>
<path style="fill:#cdade4; stroke:none;" d="M214 60L214 93C206.924 93 194.135 90.5493 188.109 94.7423C182.868 98.3882 184 105.451 184 111L184 153L238 153L238 135C245.334 135 258.735 137.58 264.606 132.347C269.779 127.737 268 118.186 268 112L268 60L214 60z"/>
<path style="fill:#eaddf4; stroke:none;" d="M218 65L218 93C220.604 86.7934 220.604 71.2066 218 65z"/>
<path style="fill:#ffffff; stroke:none;" d="M219 65L219 93C228.067 93 246.767 89.2995 251.821 99.0185C254.858 104.859 252.914 114.578 253.004 121C253.045 123.929 252.951 127.923 256.228 129.214C264.164 132.34 263 120.156 263 116L263 65L219 65z"/>
<path style="fill:#d6bce9; stroke:none;" d="M263 65L263 126C264.875 121.531 264 115.809 264 111L264 81C264 75.9198 264.981 69.72 263 65z"/>
<path style="fill:#eaddf4; stroke:none;" d="M223 71L223 89C224.952 84.349 224.952 75.651 223 71z"/>
<path style="fill:#cdade4; stroke:none;" d="M224 71L224 88L238 88L238 71L224 71z"/>
<path style="fill:#d9c1ea; stroke:none;" d="M238 71L238 88L224 88C228.471 89.8763 234.183 89 239 89C239 83.3678 240.191 76.2224 238 71z"/>
<path style="fill:#f0e6f7; stroke:none;" d="M243 71L243 77C243.951 74.7147 243.951 73.2853 243 71z"/>
<path style="fill:#cdade4; stroke:none;" d="M244 71L244 76L257 76L257 71L244 71z"/>
<path style="fill:#dac3eb; stroke:none;" d="M257 71L257 76L244 76C248.217 77.7693 253.459 77 258 77C257.953 74.7472 257.874 73.0521 257 71z"/>
<path style="fill:#f4eef9; stroke:none;" d="M244 82C248.217 83.7693 253.459 83 258 83C253.783 81.2307 248.541 82 244 82z"/>
<path style="fill:#f0e6f7; stroke:none;" d="M243 83L243 89C243.951 86.7147 243.951 85.2853 243 83z"/>
<path style="fill:#cdade4; stroke:none;" d="M244 83L244 88L257 88L257 83L244 83z"/>
<path style="fill:#dfcaee; stroke:none;" d="M257 83L257 88L244 88C248.217 89.7693 253.459 89 258 89C257.953 86.7472 257.874 85.0521 257 83z"/>
<path style="fill:#ffffff; stroke:none;" d="M189 104L195 104L195 98C191.007 98.6359 189.636 100.007 189 104M227 104L233 104L234 98C229.606 98.3352 227.709 99.5559 227 104M238 130L249 130C247.707 123.038 248.003 116.057 248 109C247.999 106.138 248.663 101.83 246.397 99.6073C243.187 96.4602 238.934 99.4155 238.228 103.044C236.591 111.469 238 121.419 238 130z"/>
<path style="fill:#dcc5ec; stroke:none;" d="M233 100L233 104C233.71 102.24 233.71 101.76 233 100z"/>
<path style="fill:#ece0f5; stroke:none;" d="M183 101L183 151C184.769 146.785 184 141.536 184 137L184 114C184 109.74 184.661 104.959 183 101z"/>
<path style="fill:#e4d2f0; stroke:none;" d="M188 101L188 104C188.696 102.446 188.696 102.554 188 101z"/>
<path style="fill:#dac2eb; stroke:none;" d="M248 102L248 128C250.477 122.097 250.477 107.903 248 102z"/>
<path style="fill:#dec8ed; stroke:none;" d="M189 104C191.052 104.874 192.747 104.953 195 105C192.948 104.126 191.253 104.047 189 104M227 104C229.052 104.874 230.747 104.953 233 105C230.948 104.126 229.253 104.047 227 104z"/>
<path style="fill:#f4edf9; stroke:none;" d="M188 109L188 116L195 116L195 109L188 109z"/>
<path style="fill:#ffffff; stroke:none;" d="M227 109L227 115L233 115L233 109L227 109M189 110L189 115L194 115L194 110L189 110z"/>
<path style="fill:#ebdef4; stroke:none;" d="M227 115C229.052 115.874 230.747 115.953 233 116C230.948 115.126 229.253 115.047 227 115z"/>
<path style="fill:#eee4f6; stroke:none;" d="M188 127L195 127L195 120C189.69 120.174 188.174 121.69 188 127z"/>
<path style="fill:#e4d3f1; stroke:none;" d="M227 120C229.052 120.874 230.747 120.953 233 121C230.948 120.126 229.253 120.047 227 120z"/>
<path style="fill:#ffffff; stroke:none;" d="M189 121L189 126L194 126L194 121L189 121M227 121L227 126L233 126L233 121L227 121z"/>
<path style="fill:#eee4f6; stroke:none;" d="M227 126C229.052 126.874 230.747 126.953 233 127C230.948 126.126 229.253 126.047 227 126z"/>
<path style="fill:#e1ceef; stroke:none;" d="M189 131C191.052 131.874 192.747 131.953 195 132C192.948 131.126 191.253 131.047 189 131M227 131C229.052 131.874 230.747 131.953 233 132C230.948 131.126 229.253 131.047 227 131z"/>
<path style="fill:#e4d2f0; stroke:none;" d="M188 132L188 138C188.951 135.715 188.951 134.285 188 132z"/>
<path style="fill:#ffffff; stroke:none;" d="M189 132L189 138L195 138L195 132L189 132M227 132L227 138L233 138L233 132L227 132z"/>
<path style="fill:#dec8ed; stroke:none;" d="M189 142C191.052 142.874 192.747 142.953 195 143C192.948 142.126 191.253 142.047 189 142M227 142C229.052 142.874 230.747 142.953 233 143C230.948 142.126 229.253 142.047 227 142z"/>
<path style="fill:#e4d2f0; stroke:none;" d="M188 143L188 149C188.951 146.715 188.951 145.285 188 143z"/>
<path style="fill:#ffffff; stroke:none;" d="M189 143L189 148L194 148L194 143L189 143z"/>
<path style="fill:#f2e9f8; stroke:none;" d="M194 143L194 148L189 148C191.052 148.874 192.747 148.953 195 149C194.953 146.747 194.874 145.052 194 143z"/>
<path style="fill:#ffffff; stroke:none;" d="M227 143L227 149L233 149L233 143L227 143z"/>
<path style="fill:#e1ceef; stroke:none;" d="M186 153C190.969 155.085 197.65 154 203 154L237 154C232.031 151.915 225.35 153 220 153L186 153z"/>
<path style="fill:#efe4f6; stroke:none;" d="M128 187C129.769 187.779 131.036 187.912 133 188C131.231 187.221 129.964 187.088 128 187z"/>
<path style="fill:#e6d6f2; stroke:none;" d="M113 188L113 191C113.696 189.446 113.696 189.554 113 188z"/>
<path style="fill:#cdade4; stroke:none;" d="M114 188C114.251 200.147 117.9 211.959 118 224L121 224C120.995 217.029 116.711 207.437 119.243 201C122.123 193.678 131.249 186.459 137.106 195.094C142.153 202.534 135.888 217.037 144 222C143.692 218.909 142.635 216.06 142.209 213C140.877 203.419 143.793 186.736 129 188.112C127.248 188.275 125.591 188.719 124.043 189.573C121.225 191.128 119.316 193.849 117 196L117 188L114 188M287 188C288.493 199.8 291.755 212.197 292 224L295 224C294.539 213.292 287.828 198.331 301.999 192.742C303.915 191.987 305.983 192.049 308 192C303.173 184.555 294.714 192.783 292 198C290.763 193.826 291.694 189.558 287 188z"/>
<path style="fill:#ece0f5; stroke:none;" d="M302 188C303.506 188.683 304.315 188.826 306 189C304.494 188.317 303.685 188.174 302 188z"/>
<path style="fill:#e9dcf3; stroke:none;" d="M309.333 188.667C309.278 188.722 309.222 189.778 309.667 189.333C309.722 189.278 309.778 188.222 309.333 188.667z"/>
<path style="fill:#cdade4; stroke:none;" d="M310 188C311.004 194.701 313.997 201.377 317.748 207C320.593 211.264 325.18 215.836 326.247 221C326.945 224.38 325.051 227.789 324.235 231C322.643 237.27 321.509 243.546 321 250L324 250C324.391 240.926 327.569 232.675 329.844 224C331.77 216.657 332.972 209.202 335.547 202C337.152 197.511 339.932 193.668 341 189C332.239 191.74 330.513 207.277 328 215C320.89 206.658 317.4 197.287 312 188L310 188M175 219C164.652 219.086 155.279 220.558 152 208L173 204C172.495 200.03 172.18 195.377 169.427 192.228C159.444 180.806 148.216 198.483 149.104 208C150.023 217.841 156.898 222.004 166 222C169.786 221.999 172.831 222.345 175 219z"/>
<path style="fill:#eee4f6; stroke:none;" d="M231 189C234.432 190.44 238.3 190 242 190C238.568 188.56 234.7 189 231 189z"/>
<path style="fill:#cdade4; stroke:none;" d="M282 219C271.652 219.086 262.279 220.558 259 208L280 204C279.495 200.03 279.18 195.377 276.427 192.228C266.444 180.806 255.216 198.483 256.104 208C257.023 217.841 263.898 222.004 273 222C276.786 221.999 279.832 222.345 282 219z"/>
<path style="fill:#dfcbee; stroke:none;" d="M129 190C130.506 190.683 131.315 190.826 133 191C131.494 190.317 130.685 190.174 129 190z"/>
<path style="fill:#cdade4; stroke:none;" d="M178 190C178.989 202.114 185.987 211.039 190 222L193 222C194.863 213.949 197.652 205.553 201 198C203.583 205.939 208.445 213.93 210 222C214.117 220.568 214.669 216.907 215.884 213C218.256 205.374 221.658 197.898 223 190C215.44 192.447 214.499 208.359 211 215C208.823 209.694 206.383 204.506 204.721 199C203.501 194.957 203.332 191.424 199 190C197.202 198.709 192.772 207.214 192 216C186.714 208.575 182.55 199.006 181 190L178 190M227 190L227 193C233.275 192.505 238.726 191.835 245 193C238.375 201.619 231.731 211.747 228 222C232.491 222.97 236.483 221.356 241 221.093C245.666 220.822 250.319 221.961 255 222C251.047 216.808 239.937 219 234 219C236.972 211.863 241.104 205.395 245.409 199C246.655 197.149 249.337 193.989 247.863 191.603C246.744 189.79 243.805 190.039 241.999 190.005C237.003 189.91 231.997 190 227 190z"/>
<path style="fill:#e7d8f2; stroke:none;" d="M308.333 190.667C308.278 190.722 308.222 191.778 308.667 191.333C308.722 191.278 308.778 190.222 308.333 190.667z"/>
<path style="fill:#dec8ed; stroke:none;" d="M117 192C117.307 194.123 117.382 194.686 119 196C118.404 194.44 117.911 193.377 117 192z"/>
<path style="fill:#ffffff; stroke:none;" d="M152 205C154.988 204.445 158.017 204.218 161 203.678C163.198 203.28 166.656 202.643 167.867 200.49C171.056 194.822 162.298 190.784 158.043 193.604C156.381 194.706 155.04 196.314 154.009 198.003C152.647 200.236 152.262 202.459 152 205z"/>
<path style="fill:#e2cfef; stroke:none;" d="M181.333 192.667C181.278 192.722 181.222 193.778 181.667 193.333C181.722 193.278 181.778 192.222 181.333 192.667z"/>
<path style="fill:#dfcbee; stroke:none;" d="M231 192C234.697 193.552 239.017 193 243 193C239.303 191.448 234.983 192 231 192z"/>
<path style="fill:#ffffff; stroke:none;" d="M259 205C261.988 204.445 265.017 204.218 268 203.678C270.198 203.28 273.656 202.643 274.867 200.49C278.056 194.822 269.298 190.784 265.043 193.604C263.381 194.706 262.04 196.314 261.009 198.003C259.647 200.236 259.262 202.459 259 205z"/>
<path style="fill:#eaddf4; stroke:none;" d="M306.667 192.333C306.222 192.778 307.278 192.722 307.333 192.667C307.778 192.222 306.722 192.278 306.667 192.333z"/>
<path style="fill:#e8daf3; stroke:none;" d="M114 194L114 199C114.83 196.97 114.83 196.03 114 194z"/>
<path style="fill:#eee4f6; stroke:none;" d="M138 196L138 202C138.951 199.715 138.951 198.285 138 196z"/>
<path style="fill:#ddc7ed; stroke:none;" d="M141 196L141 202C141.951 199.715 141.951 198.285 141 196z"/>
<path style="fill:#e6d7f2; stroke:none;" d="M172 198L172 201C172.696 199.446 172.696 199.554 172 198M279 198L279 201C279.696 199.446 279.696 199.554 279 198z"/>
<path style="fill:#e5d4f1; stroke:none;" d="M288 198L288 205C289.059 202.466 289.059 200.534 288 198z"/>
<path style="fill:#e7d8f2; stroke:none;" d="M154.667 204.333C154.222 204.778 155.278 204.722 155.333 204.667C155.778 204.222 154.722 204.278 154.667 204.333z"/>
<path style="fill:#eadcf4; stroke:none;" d="M169 204C170.248 204.685 170.548 204.749 172 205C170.752 204.315 170.452 204.251 169 204z"/>
<path style="fill:#e7d8f2; stroke:none;" d="M261.667 204.333C261.222 204.778 262.278 204.722 262.333 204.667C262.778 204.222 261.722 204.278 261.667 204.333z"/>
<path style="fill:#eadcf4; stroke:none;" d="M276 204C277.248 204.685 277.548 204.749 279 205C277.752 204.315 277.452 204.251 276 204z"/>
<path style="fill:#eaddf4; stroke:none;" d="M292 204L292 210C292.951 207.715 292.951 206.285 292 204z"/>
<path style="fill:#e1ceef; stroke:none;" d="M139 205L139 215C140.346 211.793 140.346 208.207 139 205z"/>
<path style="fill:#e0ccee; stroke:none;" d="M142 205L142 216C143.431 212.59 143.431 208.41 142 205z"/>
<path style="fill:#e7d7f2; stroke:none;" d="M334.333 205.667C334.278 205.722 334.222 206.778 334.667 206.333C334.722 206.278 334.778 205.222 334.333 205.667M159 206C160.769 206.779 162.036 206.912 164 207C162.231 206.221 160.964 206.088 159 206M266 206C267.769 206.779 269.036 206.912 271 207C269.231 206.221 267.964 206.088 266 206z"/>
<path style="fill:#e8daf3; stroke:none;" d="M115.333 207.667C115.278 207.722 115.222 208.778 115.667 208.333C115.722 208.278 115.778 207.222 115.333 207.667z"/>
<path style="fill:#e4d2f0; stroke:none;" d="M116.333 211.667C116.278 211.722 116.222 212.778 116.667 212.333C116.722 212.278 116.778 211.222 116.333 211.667M293.333 212.667C293.278 212.722 293.222 213.778 293.667 213.333C293.722 213.278 293.778 212.222 293.333 212.667z"/>
<path style="fill:#e9dbf3; stroke:none;" d="M290.333 213.667C290.278 213.722 290.222 214.778 290.667 214.333C290.722 214.278 290.778 213.222 290.333 213.667z"/>
<path style="fill:#e8daf3; stroke:none;" d="M294 216L294 219C294.696 217.446 294.696 217.554 294 216z"/>
<path style="fill:#efe5f7; stroke:none;" d="M291 217L291 223C291.951 220.715 291.951 219.285 291 217z"/>
<path style="fill:#ece0f5; stroke:none;" d="M237 218C240.432 219.44 244.3 219 248 219C244.568 217.56 240.7 218 237 218z"/>
<path style="fill:#e9dbf3; stroke:none;" d="M161 219C163.332 219.985 165.457 219.981 168 220C165.668 219.015 163.543 219.019 161 219z"/>
<path style="fill:#e5d5f1; stroke:none;" d="M252.667 219.333C252.222 219.778 253.278 219.722 253.333 219.667C253.778 219.222 252.722 219.278 252.667 219.333z"/>
<path style="fill:#e9dbf3; stroke:none;" d="M268 219C270.331 219.985 272.457 219.981 275 220C272.668 219.015 270.543 219.019 268 219z"/>
<path style="fill:#e5d4f1; stroke:none;" d="M144.333 220.667C144.278 220.722 144.222 221.778 144.667 221.333C144.722 221.278 144.778 220.222 144.333 220.667z"/>
<path style="fill:#dec8ed; stroke:none;" d="M237 221C240.432 222.44 244.3 222 248 222C244.568 220.56 240.7 221 237 221z"/>
<path style="fill:#e7d7f2; stroke:none;" d="M142.667 222.333C142.222 222.778 143.278 222.722 143.333 222.667C143.778 222.222 142.722 222.278 142.667 222.333z"/>
<path style="fill:#e1ceef; stroke:none;" d="M161 222C163.613 223.098 166.165 222.993 169 223C166.387 221.902 163.835 222.007 161 222z"/>
<path style="fill:#e4d3f0; stroke:none;" d="M190.667 222.333C190.222 222.778 191.278 222.722 191.333 222.667C191.778 222.222 190.722 222.278 190.667 222.333z"/>
<path style="fill:#ebdef4; stroke:none;" d="M251 222C252.248 222.685 252.548 222.749 254 223C252.752 222.315 252.452 222.251 251 222z"/>
<path style="fill:#e1ceef; stroke:none;" d="M268 222C270.613 223.098 273.165 222.993 276 223C273.387 221.902 270.836 222.007 268 222z"/>
<path style="fill:#e5d4f1; stroke:none;" d="M229.667 223.333C229.222 223.778 230.278 223.722 230.333 223.667C230.778 223.222 229.722 223.278 229.667 223.333z"/>
<path style="fill:#e3d2f0; stroke:none;" d="M326.333 223.667C326.278 223.722 326.222 224.778 326.667 224.333C326.722 224.278 326.778 223.222 326.333 223.667M292.667 224.333C292.222 224.778 293.278 224.722 293.333 224.667C293.778 224.222 292.722 224.278 292.667 224.333z"/>
<path style="fill:#e6d6f1; stroke:none;" d="M323.333 233.667C323.278 233.722 323.222 234.778 323.667 234.333C323.722 234.278 323.778 233.222 323.333 233.667z"/>
<path style="fill:#e7d7f2; stroke:none;" d="M326.333 234.667C326.278 234.722 326.222 235.778 326.667 235.333C326.722 235.278 326.778 234.222 326.333 234.667z"/>
<path style="fill:#ebdef4; stroke:none;" d="M324 244L324 249C324.83 246.97 324.83 246.03 324 244z"/>
</svg>
